<svg xmlns="http://www.w3.org/2000/svg" viewBox="0 0 760 420" width="760" height="420" role="img" aria-labelledby="t-titulo t-desc" font-family="system-ui, -apple-system, Segoe UI, Roboto, sans-serif">
<title id="t-titulo">Focos de queimada na Amazônia Legal</title>
<desc id="t-desc">Detecções anuais do satélite de referência do INPE, nos nove estados Fonte: Instituto Nacional de Pesquisas Espaciais (INPE) · 2003 a 2024 · Dados públicos, uso livre com citação da fonte (INPE)</desc>
<rect width="760" height="420" fill="#ffffff"/>
<line x1="62" y1="358.0" x2="740" y2="358.0" stroke="#e3e9ee" stroke-width="1"/>
<text x="53" y="362.0" font-size="11" fill="#6b7f90" text-anchor="end">0</text>
<line x1="62" y1="246.0" x2="740" y2="246.0" stroke="#e3e9ee" stroke-width="1"/>
<text x="53" y="250.0" font-size="11" fill="#6b7f90" text-anchor="end">100.000</text>
<line x1="62" y1="134.0" x2="740" y2="134.0" stroke="#e3e9ee" stroke-width="1"/>
<text x="53" y="138.0" font-size="11" fill="#6b7f90" text-anchor="end">200.000</text>
<line x1="62" y1="22.0" x2="740" y2="22.0" stroke="#e3e9ee" stroke-width="1"/>
<text x="53" y="26.0" font-size="11" fill="#6b7f90" text-anchor="end">300.000</text>
<text x="62.0" y="378" font-size="11" fill="#6b7f90" text-anchor="middle">2003</text>
<text x="158.9" y="378" font-size="11" fill="#6b7f90" text-anchor="middle">2006</text>
<text x="255.7" y="378" font-size="11" fill="#6b7f90" text-anchor="middle">2009</text>
<text x="352.6" y="378" font-size="11" fill="#6b7f90" text-anchor="middle">2012</text>
<text x="449.4" y="378" font-size="11" fill="#6b7f90" text-anchor="middle">2015</text>
<text x="546.3" y="378" font-size="11" fill="#6b7f90" text-anchor="middle">2018</text>
<text x="643.1" y="378" font-size="11" fill="#6b7f90" text-anchor="middle">2021</text>
<text x="740.0" y="378" font-size="11" fill="#6b7f90" text-anchor="middle">2024</text>
<line x1="62" y1="358" x2="740" y2="358" stroke="#9fb2c0" stroke-width="1"/>
<path d="M62.0 102.6 L94.3 42.4 L126.6 55.3 L158.9 138.1 L191.1 54.8 L223.4 202.5 L255.7 240.1 L288.0 109.1 L320.3 256.0 L352.6 196.1 L384.9 258.3 L417.1 218.7 L449.4 186.9 L481.7 210.4 L514.0 184.7 L546.3 252.8 L578.6 212.1 L610.9 184.4 L643.1 238.3 L675.4 189.4 L707.7 209.1 L740.0 135.2" fill="none" stroke="#c2410c" stroke-width="2.4" stroke-linejoin="round" stroke-linecap="round"/>
<circle cx="94.3" cy="42.4" r="4" fill="#0f2b46"/>
<text x="104.3" y="30.4" font-size="11.5" font-weight="600" fill="#0f2b46" text-anchor="start">2004: 281.827</text>
<circle cx="740.0" cy="135.2" r="4" fill="#0f2b46"/>
<text x="730.0" y="123.2" font-size="11.5" font-weight="600" fill="#0f2b46" text-anchor="end">2024: 198.972</text>
</svg>
