<svg xmlns="http://www.w3.org/2000/svg" viewBox="0 0 360 300" width="360" height="300" role="img" aria-labelledby="t-titulo t-desc" font-family="system-ui, -apple-system, Segoe UI, Roboto, sans-serif">
<title id="t-titulo">Focos de queimada na Amazônia Legal</title>
<desc id="t-desc">Detecções anuais do satélite de referência do INPE, nos nove estados Fonte: Instituto Nacional de Pesquisas Espaciais (INPE) · 2003 a 2024 · Dados públicos, uso livre com citação da fonte (INPE)</desc>
<rect width="360" height="300" fill="#ffffff"/>
<line x1="62" y1="238.0" x2="340" y2="238.0" stroke="#e3e9ee" stroke-width="1"/>
<text x="53" y="242.0" font-size="11" fill="#6b7f90" text-anchor="end">0</text>
<line x1="62" y1="166.0" x2="340" y2="166.0" stroke="#e3e9ee" stroke-width="1"/>
<text x="53" y="170.0" font-size="11" fill="#6b7f90" text-anchor="end">100.000</text>
<line x1="62" y1="94.0" x2="340" y2="94.0" stroke="#e3e9ee" stroke-width="1"/>
<text x="53" y="98.0" font-size="11" fill="#6b7f90" text-anchor="end">200.000</text>
<line x1="62" y1="22.0" x2="340" y2="22.0" stroke="#e3e9ee" stroke-width="1"/>
<text x="53" y="26.0" font-size="11" fill="#6b7f90" text-anchor="end">300.000</text>
<text x="62.0" y="258" font-size="11" fill="#6b7f90" text-anchor="middle">2003</text>
<text x="101.7" y="258" font-size="11" fill="#6b7f90" text-anchor="middle">2006</text>
<text x="141.4" y="258" font-size="11" fill="#6b7f90" text-anchor="middle">2009</text>
<text x="181.1" y="258" font-size="11" fill="#6b7f90" text-anchor="middle">2012</text>
<text x="220.9" y="258" font-size="11" fill="#6b7f90" text-anchor="middle">2015</text>
<text x="260.6" y="258" font-size="11" fill="#6b7f90" text-anchor="middle">2018</text>
<text x="300.3" y="258" font-size="11" fill="#6b7f90" text-anchor="middle">2021</text>
<text x="340.0" y="258" font-size="11" fill="#6b7f90" text-anchor="middle">2024</text>
<line x1="62" y1="238" x2="340" y2="238" stroke="#9fb2c0" stroke-width="1"/>
<path d="M62.0 73.8 L75.2 35.1 L88.5 43.4 L101.7 96.7 L115.0 43.1 L128.2 138.0 L141.4 162.2 L154.7 78.0 L167.9 172.4 L181.1 133.9 L194.4 173.9 L207.6 148.5 L220.9 128.0 L234.1 143.1 L247.3 126.6 L260.6 170.4 L273.8 144.2 L287.0 126.4 L300.3 161.1 L313.5 129.6 L326.8 142.3 L340.0 94.7" fill="none" stroke="#c2410c" stroke-width="2.4" stroke-linejoin="round" stroke-linecap="round"/>
<circle cx="75.2" cy="35.1" r="4" fill="#0f2b46"/>
<text x="85.2" y="23.1" font-size="11.5" font-weight="600" fill="#0f2b46" text-anchor="start">2004</text>
</svg>
